<?xml version="1.0" encoding="utf-8"?>
<!-- Generator: Adobe Illustrator 23.0.5, SVG Export Plug-In . SVG Version: 6.00 Build 0)  -->
<svg version="1.1" id="Layer_1" xmlns="http://www.w3.org/2000/svg" xmlns:xlink="http://www.w3.org/1999/xlink" x="0px" y="0px"
	 viewBox="0 0 512 512" style="enable-background:new 0 0 512 512;" xml:space="preserve">
<style type="text/css">
	.st0{fill-rule:evenodd;clip-rule:evenodd;fill:#B4B6C1;}
</style>
<g>
	<path class="st0" d="M74,402c5.5,0,10-4.5,10-10V20h344.4v20c0,5.5,4.5,10,10,10s10-4.5,10-10V10c0-5.5-4.5-10-10-10H74
		c-5.5,0-10,4.5-10,10v382C64,397.5,68.5,402,74,402z"/>
	<path class="st0" d="M438.4,110c-5.5,0-10,4.5-10,10v268h-94c-5.5,0-10,4.5-10,10v94H84v-20c0-5.5-4.5-10-10-10s-10,4.5-10,10v30
		c0,5.5,4.5,10,10,10h260.4c0.1,0,0.1,0,0.2,0c0.3,0,0.5,0,0.8,0c0.2,0,0.3-0.1,0.5-0.1c0.2,0,0.3,0,0.5-0.1c0.2,0,0.3-0.1,0.5-0.1
		c0.1,0,0.3-0.1,0.4-0.1c0.2,0,0.3-0.1,0.5-0.2c0.2-0.1,0.3-0.1,0.5-0.2c0.1-0.1,0.3-0.1,0.4-0.2c0.2-0.1,0.3-0.1,0.5-0.2
		c0.1-0.1,0.2-0.1,0.4-0.2c0.2-0.1,0.3-0.2,0.5-0.3c0.1-0.1,0.3-0.2,0.4-0.3c0.1-0.1,0.3-0.2,0.4-0.3c0.3-0.2,0.5-0.4,0.7-0.7
		l104-104c0.3-0.3,0.6-0.7,0.9-1c0.1-0.1,0.1-0.2,0.2-0.3c0.3-0.4,0.5-0.7,0.7-1.1c0,0,0,0,0-0.1c0.2-0.4,0.4-0.7,0.5-1.1
		c0-0.1,0.1-0.2,0.1-0.3c0.1-0.4,0.3-0.8,0.3-1.2c0,0,0,0,0,0c0.1-0.4,0.1-0.8,0.2-1.3c0-0.1,0-0.2,0-0.3s0-0.2,0-0.3V120
		C448.4,114.5,444,110,438.4,110z M344.4,477.9V408h69.9L344.4,477.9z"/>
	<path class="st0" d="M158.2,308.8c25-20.1,60.7-31.7,98-31.7s73,11.6,98,31.7c1.8,1.5,4.1,2.2,6.3,2.2c2.9,0,5.8-1.3,7.8-3.7
		c3.5-4.3,2.8-10.6-1.5-14.1c-28.5-23-68.8-36.1-110.5-36.1s-82.1,13.2-110.5,36.1c-4.3,3.5-5,9.8-1.5,14.1
		C147.6,311.6,153.9,312.3,158.2,308.8z"/>
	<path class="st0" d="M367.6,107.9c-3.9-3.9-10.2-3.9-14.1,0l-22.6,22.6l-22.6-22.6c-3.9-3.9-10.2-3.9-14.1,0
		c-3.9,3.9-3.9,10.2,0,14.1l22.6,22.6l-22.6,22.6c-3.9,3.9-3.9,10.2,0,14.1c3.9,3.9,10.2,3.9,14.1,0l22.6-22.6l22.6,22.6
		c2,2,4.5,2.9,7.1,2.9s5.1-1,7.1-2.9c3.9-3.9,3.9-10.2,0-14.1L345,144.7l22.6-22.6C371.5,118.2,371.5,111.8,367.6,107.9z"/>
	<path class="st0" d="M144.9,181.4c3.9,3.9,10.2,3.9,14.1,0l22.6-22.6l22.6,22.6c2,2,4.5,2.9,7.1,2.9s5.1-1,7.1-2.9
		c3.9-3.9,3.9-10.2,0-14.1l-22.6-22.6l22.6-22.6c3.9-3.9,3.9-10.2,0-14.1c-3.9-3.9-10.2-3.9-14.1,0l-22.6,22.6L159,107.9
		c-3.9-3.9-10.2-3.9-14.1,0c-3.9,3.9-3.9,10.2,0,14.1l22.6,22.6l-22.6,22.6C141,171.2,141,177.5,144.9,181.4z"/>
	<path class="st0" d="M74,442c5.5,0,10-4.5,10-10c0-5.5-4.5-10-10-10s-10,4.5-10,10C64,437.5,68.5,442,74,442z"/>
	<path class="st0" d="M438.4,70c-5.5,0-10,4.5-10,10c0,5.5,4.5,10,10,10s10-4.5,10-10C448.4,74.5,444,70,438.4,70z"/>
</g>
</svg>
